<svg width="23" height="23" viewBox="0 0 23 23" fill="none" xmlns="http://www.w3.org/2000/svg">
<g id="Group 396">
<path id="icon" fill-rule="evenodd" clip-rule="evenodd" d="M11.2048 0C10.8716 0 10.6015 0.270123 10.6015 0.603337C10.6015 0.936551 10.8716 1.20667 11.2048 1.20667H14.9771L11.2275 4.95627C10.0398 3.96079 8.50879 3.36142 6.83782 3.36142C3.06139 3.36142 0 6.42281 0 10.1992C0 13.9757 3.06139 17.0371 6.83782 17.0371C10.6142 17.0371 13.6756 13.9757 13.6756 10.1992C13.6756 8.52824 13.0763 6.99724 12.0807 5.80951L15.8304 2.05988V5.83226C15.8304 6.16547 16.1005 6.4356 16.4337 6.4356C16.7669 6.4356 17.0371 6.16547 17.0371 5.83226V0.603337C17.0371 0.270123 16.7669 0 16.4337 0H11.2048ZM6.83782 4.56809C3.72782 4.56809 1.20667 7.08924 1.20667 10.1992C1.20667 13.3092 3.72782 15.8304 6.83782 15.8304C9.94781 15.8304 12.469 13.3092 12.469 10.1992C12.469 7.08924 9.94781 4.56809 6.83782 4.56809Z" fill="white"/>
<path id="icon_2" fill-rule="evenodd" clip-rule="evenodd" d="M17.0645 6.81482C16.7479 6.81482 16.4913 7.07144 16.4913 7.38799C16.4913 7.70454 16.7479 7.96116 17.0645 7.96116H20.6482L17.0861 11.5233C15.9577 10.5776 14.5033 10.0081 12.9159 10.0081V11.1545C15.8704 11.1545 18.2655 13.5496 18.2655 16.5041C18.2655 19.4586 15.8704 21.8537 12.9159 21.8537C8.56137 21.7222 7.69776 18.7407 7.69776 18.7407L6.41998 19.5926C6.41998 19.5926 8.40899 23 12.9159 23C16.6422 23 19.4118 20.0917 19.4118 16.5041C19.4118 14.9166 18.8424 13.4622 17.8967 12.3339L21.4588 8.77173V12.3555C21.4588 12.672 21.7154 12.9286 22.032 12.9286C22.3485 12.9286 22.6051 12.672 22.6051 12.3555V7.38799C22.6051 7.07144 22.3485 6.81482 22.032 6.81482H17.0645Z" fill="white"/>
</g>
</svg>
